<svg xmlns="http://www.w3.org/2000/svg" xmlns:xlink="http://www.w3.org/1999/xlink" viewBox="0 0 63.36 63.36"><defs><style>.cls-1{fill:url(#linear-gradient);}.cls-2{fill:url(#linear-gradient-2);}.cls-3{fill:url(#linear-gradient-3);}.cls-4{fill:url(#linear-gradient-4);}.cls-5{fill:url(#linear-gradient-5);}</style><linearGradient id="linear-gradient" x1="15.48" y1="12.84" x2="15.48" y2="50.53" gradientUnits="userSpaceOnUse"><stop offset="0" stop-color="#27aae1"/><stop offset="1" stop-color="#1c75bc"/></linearGradient><linearGradient id="linear-gradient-2" x1="12.77" y1="22.86" x2="35.48" y2="22.86" gradientUnits="userSpaceOnUse"><stop offset="0" stop-color="#1c75bc"/><stop offset="1" stop-color="#27aae1"/></linearGradient><linearGradient id="linear-gradient-3" x1="47.89" y1="50.53" x2="47.89" y2="15.55" xlink:href="#linear-gradient"/><linearGradient id="linear-gradient-4" x1="31.46" y1="21.03" x2="50.59" y2="21.03" xlink:href="#linear-gradient-2"/><linearGradient id="linear-gradient-5" x1="10.04" y1="-5.8" x2="53.32" y2="69.16" gradientUnits="userSpaceOnUse"><stop offset="0" stop-color="#1c75bc"/><stop offset="0.84" stop-color="#27aae1"/></linearGradient></defs><g id="Layer_2" data-name="Layer 2"><g id="Layer_2-2" data-name="Layer 2"><path class="cls-1" d="M18.18,13.56V45.12a5.41,5.41,0,0,1-5.41,5.41h0V12.84h4.61Z"/><polygon class="cls-2" points="35.48 29.23 31.46 32.88 27.43 29.23 18.18 20.85 12.78 15.96 12.78 12.84 17.38 12.84 18.18 13.56 31.46 25.58 35.48 29.23"/><path class="cls-3" d="M50.59,15.55v35h0a5.4,5.4,0,0,1-5.4-5.41V20.44Z"/><polygon class="cls-4" points="50.59 12.84 50.59 15.55 45.19 20.44 35.48 29.23 31.46 25.58 45.19 13.15 45.53 12.84 50.59 12.84"/><path class="cls-5" d="M63.36,63.36H0V0H63.36ZM5,58.36H58.36V5H5Z"/></g></g></svg>