<svg xmlns="http://www.w3.org/2000/svg" xmlns:xlink="http://www.w3.org/1999/xlink" viewBox="0 0 271.24 86.31"><defs><style>.cls-1{fill:#363d6a;}.cls-2{font-size:21px;fill:#057399;font-family:OpenSans-Light, Open Sans;font-weight:300;letter-spacing:0.01em;}.cls-3{fill:url(#linear-gradient);}.cls-4{fill:#fff;}.cls-5{fill:none;stroke-linecap:round;stroke-linejoin:round;stroke-width:3px;stroke:url(#linear-gradient-2);}.cls-6{fill:url(#linear-gradient-3);}.cls-7{fill:#0f89c0;}.cls-8{fill:url(#linear-gradient-4);}.cls-9{fill:url(#linear-gradient-5);}.cls-10{fill:url(#linear-gradient-6);}.cls-11{fill:url(#linear-gradient-7);}</style><linearGradient id="linear-gradient" x1="21.02" y1="82.92" x2="21.02" y2="2.21" gradientUnits="userSpaceOnUse"><stop offset="0" stop-color="#e6e7e8"/><stop offset="1" stop-color="#f1f2f2"/></linearGradient><linearGradient id="linear-gradient-2" y1="43.16" x2="78.45" y2="43.16" gradientUnits="userSpaceOnUse"><stop offset="0" stop-color="#354c88"/><stop offset="1" stop-color="#31a9dd"/></linearGradient><linearGradient id="linear-gradient-3" x1="38.85" y1="33.76" x2="51.61" y2="33.76" gradientUnits="userSpaceOnUse"><stop offset="0" stop-color="#81cbea"/><stop offset="1" stop-color="#0f89c0"/></linearGradient><linearGradient id="linear-gradient-4" x1="38.68" y1="52.55" x2="51.99" y2="52.55" gradientUnits="userSpaceOnUse"><stop offset="0" stop-color="#057399"/><stop offset="0.38" stop-color="#1f5e90"/><stop offset="0.73" stop-color="#2f518a"/><stop offset="1" stop-color="#354c88"/></linearGradient><linearGradient id="linear-gradient-5" x1="15.13" y1="55.59" x2="41.62" y2="55.59" gradientUnits="userSpaceOnUse"><stop offset="0" stop-color="#363d6a"/><stop offset="1" stop-color="#354c88"/></linearGradient><linearGradient id="linear-gradient-6" x1="20.16" y1="55.81" x2="63.32" y2="55.81" gradientUnits="userSpaceOnUse"><stop offset="0" stop-color="#354c88"/><stop offset="0.36" stop-color="#354982"/><stop offset="0.83" stop-color="#364172"/><stop offset="1" stop-color="#363d6a"/></linearGradient><linearGradient id="linear-gradient-7" x1="19.78" y1="30.51" x2="62.94" y2="30.51" gradientUnits="userSpaceOnUse"><stop offset="0" stop-color="#0f89c0"/><stop offset="1" stop-color="#81cbea"/></linearGradient></defs><g id="Layer_2" data-name="Layer 2"><g id="Layer_3" data-name="Layer 3"><path class="cls-1" d="M114.18,36.35a46,46,0,0,1-1.85,5.26,29.36,29.36,0,0,1-6.14.84c-8,0-12.11-5.55-12.11-11.65,0-7.12,5.2-12,12.72-12a32.69,32.69,0,0,1,6.34.8c.13,1.57.37,3.66.63,5.4l-1,.25c-.67-2.34-1.47-3.77-3.18-4.5a8.89,8.89,0,0,0-3.53-.66c-5.53,0-8.45,4.25-8.45,10,0,6.73,3.35,11,8.79,11,3.42,0,5.1-1.63,6.81-5.12Z"/><path class="cls-1" d="M137.3,42.21c-.44,0-.81,0-1.24-.07a5.93,5.93,0,0,1-5.24-3c-1.24-1.78-2.45-4-3.52-5.76-.67-1.12-1.11-1.32-2.82-1.32h-1.17v5.47c0,3,.37,3.14,3,3.42v1h-9V41c2.79-.31,3-.45,3-3.42V23.61c0-3-.37-3.07-3-3.38v-1H126c2.45,0,4.09.32,5.37,1.19a5.29,5.29,0,0,1,2.28,4.6c0,3-1.85,4.89-4.33,6,.6,1.09,2.05,3.42,3.05,5a32.86,32.86,0,0,0,2.65,3.6,4.83,4.83,0,0,0,2.45,1.6ZM124.92,30.87a5.27,5.27,0,0,0,3.69-1,5,5,0,0,0,1.84-4.29c0-3.73-2.38-5.1-5-5.1a3,3,0,0,0-1.78.35c-.3.25-.4.6-.4,1.5v8.55Z"/><path class="cls-1" d="M156,36.38c-.21.91-1.11,4.5-1.45,5.55h-16.3V41c3.12-.24,3.35-.56,3.35-3.42V23.75c0-3.1-.37-3.28-2.88-3.52v-1H149c3.16,0,4.47,0,4.87-.07,0,.88.17,3.49.3,5.34l-1,.18a11.94,11.94,0,0,0-1-2.66c-.54-1.15-1.31-1.39-3.32-1.39h-3.19c-1,0-1.11.1-1.11,1.12v7.7h3.73c2.51,0,2.68-.52,3.08-2.89h1v7.18h-1c-.43-2.51-.7-2.86-3.12-2.86h-3.69v7c0,2.44.74,2.65,2.42,2.68h3.12c2,0,2.38-.31,3.12-1.22A15.3,15.3,0,0,0,155,36.1Z"/><path class="cls-1" d="M167.7,19.25c4.74,0,7.72,1,9.8,3a10.26,10.26,0,0,1,2.86,7.46,11.66,11.66,0,0,1-4.2,9.42c-2.55,2-5.8,2.76-9.93,2.76h-7.85V41c2.88-.28,3-.52,3-3.38V23.65c0-3-.41-3.14-3-3.42v-1Zm-3.38,18c0,2.61,1.07,3.35,3.59,3.35,6,0,9.12-4.29,9.12-10.4,0-3.8-1.24-6.7-3.89-8.37a10.31,10.31,0,0,0-5.74-1.4,4.61,4.61,0,0,0-2.65.49c-.3.21-.43.6-.43,2Z"/><path class="cls-1" d="M201,36.38c-.2.91-1.11,4.5-1.45,5.55h-16.3V41c3.12-.24,3.35-.56,3.35-3.42V23.75c0-3.1-.37-3.28-2.88-3.52v-1H194c3.15,0,4.46,0,4.86-.07,0,.88.17,3.49.3,5.34l-1,.18a12.41,12.41,0,0,0-1-2.66c-.54-1.15-1.31-1.39-3.32-1.39h-3.19c-1,0-1.11.1-1.11,1.12v7.7h3.73c2.51,0,2.68-.52,3.08-2.89h1v7.18h-1c-.43-2.51-.7-2.86-3.12-2.86h-3.69v7c0,2.44.74,2.65,2.42,2.68h3.12c2,0,2.38-.31,3.12-1.22A14.86,14.86,0,0,0,200,36.1Z"/><path class="cls-1" d="M226.57,20.23c-2.15.24-2.86.59-3,2.2,0,1.11-.1,2.58-.1,5.82v14h-1.27L207.88,24v8.72c0,3.14.1,4.71.16,5.72.07,1.78.91,2.3,3.33,2.51v1h-8.16V41c2.08-.17,2.89-.7,3-2.41.1-1.11.17-2.68.17-5.86V23.79a3.12,3.12,0,0,0-.67-2.3c-.64-.88-1.34-1.08-3-1.26v-1h5L222,36.8V28.25c0-3.24-.06-4.74-.17-5.79-.1-1.57-.87-2.05-3.55-2.23v-1h8.29Z"/><path class="cls-1" d="M249.29,36.35a46,46,0,0,1-1.85,5.26,29.36,29.36,0,0,1-6.14.84c-8,0-12.11-5.55-12.11-11.65,0-7.12,5.2-12,12.71-12a32.7,32.7,0,0,1,6.35.8c.13,1.57.36,3.66.63,5.4l-1,.25c-.67-2.34-1.47-3.77-3.18-4.5a8.89,8.89,0,0,0-3.53-.66c-5.53,0-8.45,4.25-8.45,10,0,6.73,3.35,11,8.79,11,3.42,0,5.1-1.63,6.81-5.12Z"/><path class="cls-1" d="M269.93,36.38c-.21.91-1.11,4.5-1.45,5.55h-16.3V41c3.12-.24,3.35-.56,3.35-3.42V23.75c0-3.1-.37-3.28-2.88-3.52v-1h10.26c3.16,0,4.46,0,4.87-.07,0,.88.17,3.49.3,5.34l-1,.18a11.94,11.94,0,0,0-1-2.66c-.54-1.15-1.31-1.39-3.33-1.39h-3.18c-1,0-1.11.1-1.11,1.12v7.7h3.72c2.52,0,2.69-.52,3.09-2.89h1v7.18h-1c-.44-2.51-.7-2.86-3.12-2.86h-3.69v7c0,2.44.74,2.65,2.42,2.68H264c2,0,2.38-.31,3.12-1.22a15.3,15.3,0,0,0,1.81-3.21Z"/><text class="cls-2" transform="translate(96.62 67.51) scale(0.96 1)">TECHNOLOGY LTD</text><path class="cls-3" d="M2.85,13.16A59.12,59.12,0,0,1,39.39,2.25V82.92A78.62,78.62,0,0,1,24.56,71.15,77.22,77.22,0,0,1,6.5,42.26,74,74,0,0,1,2.85,13.16Z"/><path class="cls-4" d="M75.94,13.09A59.13,59.13,0,0,0,39.39,2.18V82.85A78.32,78.32,0,0,0,54.23,71.08,77.07,77.07,0,0,0,72.28,42.2,73.92,73.92,0,0,0,75.94,13.09Z"/><path class="cls-5" d="M76.74,12.8A60.54,60.54,0,0,0,39.23,1.54v.07A60.54,60.54,0,0,0,1.71,12.87a76.69,76.69,0,0,0,3.75,30A79.63,79.63,0,0,0,24,72.67,80.45,80.45,0,0,0,39.23,84.81v-.07A80.76,80.76,0,0,0,54.45,72.6,79.63,79.63,0,0,0,73,42.81,76.5,76.5,0,0,0,76.74,12.8Z"/><path class="cls-6" d="M38.86,31.11c-.22.47,4.1,1,6,2.42a7.94,7.94,0,0,1,2.46,3.2l4.27-.53a8.29,8.29,0,0,0-1.27-2.11,9,9,0,0,0-2.91-2.34,9.56,9.56,0,0,0-4.47-1C42.24,30.81,39,30.74,38.86,31.11Z"/><path class="cls-7" d="M41.24,20.82a30.86,30.86,0,0,0-7.52.13,22.63,22.63,0,0,0-12.18,6.49,19.79,19.79,0,0,0-5.93,9.61,14.48,14.48,0,0,0-.48,3.48,42.58,42.58,0,0,0,4.65-.27,22.07,22.07,0,0,1,1.06-4.19,22.73,22.73,0,0,1,3.05-5.71,24,24,0,0,1,5.93-5.56,29.88,29.88,0,0,1,6.25-3,24.41,24.41,0,0,1,5-1C41.22,20.82,41.24,20.84,41.24,20.82Z"/><path class="cls-8" d="M38.69,55.16c-.23-.47,4.65-.93,6.57-2.38a7.94,7.94,0,0,0,2.46-3.2l4.27.53a8.51,8.51,0,0,1-1.26,2.11,9,9,0,0,1-2.92,2.34,9.56,9.56,0,0,1-4.47,1C42.62,55.5,38.87,55.53,38.69,55.16Z"/><path class="cls-9" d="M41.62,65.49a30.86,30.86,0,0,1-7.52-.13,22.67,22.67,0,0,1-12.18-6.49A19.71,19.71,0,0,1,16,49.26c-.39-1.6-.74-2.76-.87-3.74,1.55.24,3.48.29,5,.53A22.29,22.29,0,0,0,24.27,56a24.12,24.12,0,0,0,5.93,5.57,30.77,30.77,0,0,0,6.25,3,24.41,24.41,0,0,0,5,1C41.6,65.49,41.62,65.47,41.62,65.49Z"/><path class="cls-10" d="M30.84,46.27l-10.68-.22A22.6,22.6,0,0,0,22.94,54a23.51,23.51,0,0,0,6.17,6.79,24.21,24.21,0,0,0,10.71,4.53,22.09,22.09,0,0,0,15.17-3,21.85,21.85,0,0,0,8.33-10L52,50.11a8.91,8.91,0,0,1-2.56,3.42A10.17,10.17,0,0,1,42,55.45,12.47,12.47,0,0,1,34.48,52,13.39,13.39,0,0,1,30.84,46.27Z"/><path class="cls-11" d="M30.46,40.05l-10.68.21a22.6,22.6,0,0,1,2.78-7.91,23.51,23.51,0,0,1,6.17-6.79A24.34,24.34,0,0,1,39.44,21,22.06,22.06,0,0,1,54.6,24a21.82,21.82,0,0,1,8.34,10L51.61,36.2a9.12,9.12,0,0,0-2.56-3.42,10.18,10.18,0,0,0-7.48-1.92,12.6,12.6,0,0,0-7.48,3.42A13.41,13.41,0,0,0,30.46,40.05Z"/></g></g></svg>