<svg xmlns="http://www.w3.org/2000/svg" xmlns:xlink="http://www.w3.org/1999/xlink" viewBox="0 0 291.54 63.36"><defs><style>.cls-1{fill:url(#linear-gradient);}.cls-2{fill:url(#linear-gradient-2);}.cls-3{fill:url(#linear-gradient-3);}.cls-4{fill:url(#linear-gradient-4);}.cls-5{fill:url(#linear-gradient-5);}.cls-6{fill:url(#linear-gradient-6);}.cls-7{fill:url(#linear-gradient-7);}.cls-8{fill:url(#linear-gradient-8);}.cls-9{fill:url(#linear-gradient-9);}.cls-10{fill:url(#linear-gradient-10);}.cls-11{fill:url(#linear-gradient-11);}.cls-12{fill:none;stroke-miterlimit:10;stroke-width:2px;stroke:url(#linear-gradient-12);}</style><linearGradient id="linear-gradient" x1="113.67" y1="50.94" x2="113.67" y2="14.8" gradientUnits="userSpaceOnUse"><stop offset="0" stop-color="#1c75bc"/><stop offset="0.84" stop-color="#27aae1"/></linearGradient><linearGradient id="linear-gradient-2" x1="151.1" y1="50.94" x2="151.1" y2="14.8" xlink:href="#linear-gradient"/><linearGradient id="linear-gradient-3" x1="176.6" y1="51.53" x2="176.6" y2="14.8" xlink:href="#linear-gradient"/><linearGradient id="linear-gradient-4" x1="206.65" y1="51.53" x2="206.65" y2="14.21" xlink:href="#linear-gradient"/><linearGradient id="linear-gradient-5" x1="240.94" y1="50.94" x2="240.94" y2="14.53" xlink:href="#linear-gradient"/><linearGradient id="linear-gradient-6" x1="280.41" y1="50.94" x2="280.41" y2="14.53" xlink:href="#linear-gradient"/><linearGradient id="linear-gradient-7" x1="15.48" y1="12.84" x2="15.48" y2="50.53" gradientUnits="userSpaceOnUse"><stop offset="0" stop-color="#27aae1"/><stop offset="1" stop-color="#1c75bc"/></linearGradient><linearGradient id="linear-gradient-8" x1="12.77" y1="22.86" x2="35.48" y2="22.86" gradientUnits="userSpaceOnUse"><stop offset="0" stop-color="#1c75bc"/><stop offset="1" stop-color="#27aae1"/></linearGradient><linearGradient id="linear-gradient-9" x1="47.89" y1="50.53" x2="47.89" y2="15.55" xlink:href="#linear-gradient-7"/><linearGradient id="linear-gradient-10" x1="31.46" y1="21.03" x2="50.59" y2="21.03" xlink:href="#linear-gradient-8"/><linearGradient id="linear-gradient-11" x1="10.04" y1="-5.8" x2="53.32" y2="69.16" xlink:href="#linear-gradient"/><linearGradient id="linear-gradient-12" x1="66.91" y1="9.36" x2="92.68" y2="54" xlink:href="#linear-gradient"/></defs><g id="Layer_2" data-name="Layer 2"><g id="Layer_2-2" data-name="Layer 2"><path class="cls-1" d="M126.64,35.07c-.26-5-.59-11.1-.53-15.6H126c-1.24,4.23-2.74,8.74-4.56,13.72L115,50.73h-3.54l-5.84-17.22c-1.72-5.09-3.17-9.75-4.19-14h-.1c-.11,4.5-.38,10.56-.7,16l-1,15.5H95.22L97.74,14.8h6l6.16,17.48c1.5,4.45,2.74,8.42,3.65,12.17h.16c.91-3.64,2.2-7.61,3.81-12.17l6.43-17.48h6l2.25,36.14h-4.55Z"/><path class="cls-2" d="M144.56,39.57,140.8,50.94H136L148.25,14.8h5.63l12.34,36.14h-5l-3.86-11.37Zm11.85-3.64-3.54-10.41c-.81-2.35-1.34-4.5-1.88-6.59h-.11c-.53,2.14-1.12,4.34-1.82,6.54l-3.54,10.46Z"/><path class="cls-3" d="M179.89,14.8h4.67V39c0,9.6-4.72,12.55-10.94,12.55a15.17,15.17,0,0,1-5-.86l.7-3.8a11.3,11.3,0,0,0,3.92.69c4.18,0,6.64-1.87,6.64-9Z"/><path class="cls-4" d="M223.17,32.5c0,12.44-7.57,19-16.79,19-9.54,0-16.24-7.4-16.24-18.34,0-11.47,7.13-19,16.78-19C216.78,14.21,223.17,21.77,223.17,32.5Zm-28,.59c0,7.72,4.18,14.63,11.53,14.63s11.58-6.81,11.58-15c0-7.19-3.75-14.69-11.53-14.69S195.12,25.15,195.12,33.09Z"/><path class="cls-5" d="M229.17,15.28a48.87,48.87,0,0,1,9-.75c5,0,8.2.91,10.45,3a9,9,0,0,1,2.85,6.87,9.5,9.5,0,0,1-6.81,9.22v.16c2.78,1,4.45,3.54,5.3,7.29,1.18,5,2,8.53,2.79,9.92h-4.82c-.59-1-1.4-4.13-2.42-8.63-1.07-5-3-6.87-7.23-7h-4.4V50.94h-4.67Zm4.67,16.46h4.77c5,0,8.15-2.73,8.15-6.86,0-4.66-3.38-6.7-8.31-6.75a19.58,19.58,0,0,0-4.61.42Z"/><path class="cls-6" d="M269.28,15.23a53.6,53.6,0,0,1,9-.7c4.61,0,8,1.08,10.13,3a9.69,9.69,0,0,1,3.17,7.56,10.66,10.66,0,0,1-2.79,7.72c-2.47,2.62-6.49,4-11.05,4a15.91,15.91,0,0,1-3.75-.33V50.94h-4.67ZM274,32.66a16.05,16.05,0,0,0,3.86.37c5.63,0,9.06-2.73,9.06-7.72,0-4.77-3.38-7.08-8.53-7.08a19.13,19.13,0,0,0-4.39.38Z"/><path class="cls-7" d="M18.18,13.56V45.12a5.41,5.41,0,0,1-5.41,5.41h0V12.84h4.61Z"/><polygon class="cls-8" points="35.48 29.23 31.46 32.88 27.43 29.23 18.18 20.85 12.78 15.96 12.78 12.84 17.38 12.84 18.18 13.56 31.46 25.58 35.48 29.23"/><path class="cls-9" d="M50.59,15.55v35h0a5.4,5.4,0,0,1-5.4-5.41V20.44Z"/><polygon class="cls-10" points="50.59 12.84 50.59 15.55 45.19 20.44 35.48 29.23 31.46 25.58 45.19 13.15 45.53 12.84 50.59 12.84"/><path class="cls-11" d="M63.36,63.36H0V0H63.36ZM5,58.36H58.36V5H5Z"/><line class="cls-12" x1="79.8" y1="2.5" x2="79.8" y2="60.86"/></g></g></svg>