<svg xmlns="http://www.w3.org/2000/svg" viewBox="0 0 438.72 444.19"><defs><style>.cls-1{fill:#f5f5f5;}.cls-2{fill:#e0e0e0;}.cls-3{fill:#27debf;}.cls-4{fill:#167893;}.cls-15,.cls-16,.cls-5{fill:#62d3ed;}.cls-6{fill:#187c96;}.cls-7{fill:#2fa6c1;}.cls-17,.cls-8{fill:#fff;}.cls-8{opacity:0.4;}.cls-9{opacity:0.15;}.cls-10{fill:#003c51;}.cls-11{fill:#455a64;}.cls-12{fill:#263238;}.cls-13{fill:#9a4a4d;}.cls-14{fill:#e6e6e6;}.cls-15{opacity:0.1;}.cls-16{opacity:0.05;}.cls-17{opacity:0.3;}.cls-18{fill:#b16668;}.cls-19{fill:#37474f;}</style></defs><g id="Layer_2" data-name="Layer 2"><g id="Character"><path id="Floor" class="cls-1" d="M64.25,410.63c85.66,44.75,224.55,44.75,310.22,0s85.66-117.31,0-162.06-224.56-44.75-310.22,0S-21.42,365.88,64.25,410.63Z"/><ellipse class="cls-2" cx="366.38" cy="342.18" rx="48.02" ry="27.72"/><path class="cls-3" d="M116.79,115.53c-4.7,2.71-8.53,10-8.53,16.28,0,5.59,3,8.49,7,7.13V257.6L72,166.85a7.59,7.59,0,0,1-.08-5.53c10.92-25.27,19-53.74,21.72-82.95a6.59,6.59,0,0,1,2.91-4.56L137,50.48A1.81,1.81,0,0,1,139.92,52c2.71,25.27,10.45,44,20.93,56.64a6.19,6.19,0,0,1,1.11,5.2c-6.08,19.76-41.12,133.72-43.67,142V137.21c4-3.25,7-9.65,7-15.24C125.31,115.69,121.5,112.81,116.79,115.53Z"/><path class="cls-3" d="M181.75,125.26l-43.67,142-3-1.74V269l-19.8-11.42L72,166.85a7.59,7.59,0,0,1-.08-5.53c10.92-25.27,19-53.74,21.72-82.95a6.59,6.59,0,0,1,2.91-4.56L137,50.48a5.83,5.83,0,0,1,5.27,0l14.52,8.39a6.7,6.7,0,0,1,2.94,4.55c2.71,25.28,10.44,44,20.93,56.63A6.21,6.21,0,0,1,181.75,125.26Z"/><path class="cls-4" d="M145.11,133.4c0,5.6-3,12-7,15.23V267.3l-3-1.74V150.36c-4,1.37-7-1.52-7-7.11,0-6.28,3.81-13.58,8.52-16.3S145.11,127.12,145.11,133.4Z"/><path class="cls-5" d="M181.75,125.26l-43.67,142V148.63c4-3.24,7-9.63,7-15.23,0-6.28-3.82-9.16-8.52-6.45s-8.52,10-8.52,16.3c0,5.59,3,8.48,7,7.11V269L91.84,178.29a7.57,7.57,0,0,1-.09-5.54c10.92-25.27,19-53.74,21.74-83a6.58,6.58,0,0,1,2.9-4.55l40.39-23.33a1.82,1.82,0,0,1,2.94,1.51c2.71,25.28,10.44,44,20.93,56.63A6.21,6.21,0,0,1,181.75,125.26Z"/><path class="cls-6" d="M114.3,87.46a5.76,5.76,0,0,0-.81,2.33c-2.74,29.22-10.82,57.69-21.75,83a7.32,7.32,0,0,0-.46,3L71.49,164.36a7.42,7.42,0,0,1,.46-3.05c10.93-25.27,19-53.74,21.73-82.94A5.75,5.75,0,0,1,94.51,76Z"/><path class="cls-7" d="M159.64,63a1.76,1.76,0,0,0-2.85-1.08l-40.4,23.33a6.06,6.06,0,0,0-2.09,2.22L94.51,76a6.18,6.18,0,0,1,2.07-2.22L137,50.48a5.87,5.87,0,0,1,5.29,0l14.51,8.38A6.72,6.72,0,0,1,159.64,63Z"/><path class="cls-6" d="M84.8,37.59l64-37a5.85,5.85,0,0,1,5.28,0L168.58,9a5.83,5.83,0,0,1,2.64,4.57V41.78a5.83,5.83,0,0,1-2.64,4.57l-64,36.95a5.83,5.83,0,0,1-5.27,0L84.8,74.91a5.81,5.81,0,0,1-2.64-4.56V42.15A5.81,5.81,0,0,1,84.8,37.59Z"/><path class="cls-8" d="M171.2,13.16c-.19-1.36-1.29-1.86-2.62-1.09L104.59,49a5.44,5.44,0,0,0-1.86,2L82.93,39.56a5.31,5.31,0,0,1,1.87-2l64-37a5.83,5.83,0,0,1,5.27,0L168.58,9A5.89,5.89,0,0,1,171.2,13.16Z"/><path class="cls-9" d="M104.17,83.51l-.06,0-.16,0a.51.51,0,0,1-.17.07,1.29,1.29,0,0,1-.26.08l-.31.07-.22,0-.45.07a5.56,5.56,0,0,1-3.22-.6L84.8,74.92a5.83,5.83,0,0,1-2.64-4.57V42.15a5.34,5.34,0,0,1,.77-2.59L102.73,51a5.28,5.28,0,0,0-.78,2.6v28.2c0,1.19.6,1.88,1.46,1.88a1.69,1.69,0,0,0,.38,0Z"/><path class="cls-10" d="M135.09,269l-19.8-11.42L72.05,166.86a6.9,6.9,0,0,1-.56-2.5l19.79,11.42a6.67,6.67,0,0,0,.56,2.51Z"/><path class="cls-10" d="M138.08,148.63V267.3l-3-1.74V150.36c-4,1.37-7-1.51-7-7.1,0-.14,0-.26,0-.39Z"/><path class="cls-11" d="M234.55,116.51c0-3.22-2.26-4.53-5.05-2.92a11.15,11.15,0,0,0-5.06,8.76c0,2.61,1.5,3.93,3.54,3.49-2.84,59.61-44.57,129.86-95.47,159.24-25.29,14.6-49,17-66.76,6.75-16.77-9.68-26.41-29.61-27.43-56.4a11.29,11.29,0,0,0,3.6-7.65c0-3.22-2.26-4.53-5.05-2.91a11.18,11.18,0,0,0-5.06,8.75c0,2.75,1.66,4.09,3.88,3.42,1.36,27,11.43,47.14,28.72,57.12a50.83,50.83,0,0,0,25.76,6.63c13.43,0,28.3-4.49,43.69-13.38,52.06-30.06,94.66-102.28,96.88-163.06A11.33,11.33,0,0,0,234.55,116.51Z"/><path class="cls-11" d="M229.5,225.06a11.33,11.33,0,0,0-4.86,7.08l-183,105.65c-.65-2-2.54-2.61-4.79-1.3a11.18,11.18,0,0,0-5.06,8.75c0,3.22,2.27,4.53,5.06,2.92a11.37,11.37,0,0,0,4.91-7.33L224.65,235.25c.59,2.12,2.52,2.82,4.85,1.48a11.17,11.17,0,0,0,5.05-8.76C234.55,224.75,232.29,223.44,229.5,225.06Z"/><path class="cls-11" d="M43.92,230.62a7.19,7.19,0,1,1-7.18-7.18A7.18,7.18,0,0,1,43.92,230.62Z"/><circle class="cls-11" cx="36.47" cy="342.18" r="7.19"/><path class="cls-11" d="M237.09,231.08a7.19,7.19,0,1,1-7.19-7.19A7.18,7.18,0,0,1,237.09,231.08Z"/><path class="cls-11" d="M236.42,119.28a7.19,7.19,0,1,1-7.18-7.18A7.18,7.18,0,0,1,236.42,119.28Z"/><g id="Character-2" data-name="Character"><path class="cls-12" d="M277.55,353.37c-1.49,3.28-6.91,4-10.06,4.13-4.8.17-9.22-2-13.48-3.93-3-1.37-5.91-2.92-8.87-4.38s-5.9-3.12-9.11-3.85c-3.82-.85-10.56-1.27-11.89,3.6-1.43,5.26,5.78,9.68,9.18,12.21s8.07,5.31,9.73,9.33c2,4.89-4.61,6.43-8.11,6.62-9.95.53-19.72-2.73-28.85-6.29-13.12-5.11-26.16-10.71-39.88-14-11.48-2.77-29.34-5.52-36,7.25-.13.25.28.73.46.43,7.19-11.8,23.64-9.36,35-6.62,13.87,3.36,27,9,40.28,14.19,8.87,3.44,18.18,6.42,27.8,6.25,4.39-.08,13.25-1.94,10.51-8.31-1.42-3.31-4.8-5.76-7.56-7.88-3.4-2.61-7.25-5-9.94-8.43-1.7-2.18-2.24-5.34.68-6.86,2.49-1.3,5.93-.86,8.54-.21,4,1,7.79,3.29,11.45,5.13,3.37,1.71,6.78,3.34,10.27,4.79,4.06,1.69,8.12,2.61,12.51,1.87,2.88-.48,7.19-1.53,8.37-4.6.24-.61-.79-1-1-.42Z"/><path class="cls-13" d="M347.3,152.23c-5.12,6.11-13.57,14.37-18.37,20.39A17.48,17.48,0,0,0,325,183.74c0,3,.86,5.5,3.79,4.23,2.12-.93,3.46-2,6.55-5.07,2.78-2.74,16.23-15.34,16.23-15.34s2.51-15.48,6.67-16.74,7.69-7.89,7.69-7.89C359.19,142.25,353.79,144.47,347.3,152.23Z"/><path class="cls-14" d="M273.69,319.74a.61.61,0,0,1,.05-.12L336.67,86.26s0,0,0,0v-.06a1.77,1.77,0,0,1,.06-.17,3.53,3.53,0,0,1,.45-.94,5.08,5.08,0,0,1,.72-.9,8.25,8.25,0,0,1,3.75-2c5.6-1.48,13.46.64,17.54,4.74a7.3,7.3,0,0,1,2.42,4.81,4.31,4.31,0,0,1-.16,1.24l-62.32,231.1-.66,2.41h0c-.48,1.81-2.18,3.29-5,4-5.62,1.48-13.49-.64-17.57-4.74C273.93,323.75,273.2,321.57,273.69,319.74Z"/><path class="cls-5" d="M275.81,353h0l1.58-6.27h0a1,1,0,0,1,.83-.71,3.33,3.33,0,0,1,2.89.78,1.06,1.06,0,0,1,.38,1h0l-1.56,6.27h0a2.25,2.25,0,0,1-.54.91,2.13,2.13,0,0,1-3.58-2Z"/><path class="cls-5" d="M275.76,353.39h0c0-.12,0-.26,0-.38s0,0,0,0c.46,1.29,3,2.13,4.06,1.2a.36.36,0,0,1,0,.11l0,.12a1.8,1.8,0,0,1-.4.56,2.14,2.14,0,0,1-3,0A2.09,2.09,0,0,1,275.76,353.39Z"/><path class="cls-5" d="M275.75,341.5a11.45,11.45,0,0,0,10,2.71,4.11,4.11,0,0,0,2.53-1.62l9.3-14.41a7.75,7.75,0,0,1-4.07,2.35c-5.62,1.48-13.49-.64-17.57-4.74a7.62,7.62,0,0,1-2.36-4.25l.76,17.11c0,.11,0,.23,0,.34A4.28,4.28,0,0,0,275.75,341.5Z"/><path class="cls-15" d="M276.37,334a14.27,14.27,0,0,0,12.44,3.35c2-.53,3.17-1.57,3.5-2.85s-.1-2.84-1.57-4.31a14.17,14.17,0,0,0-12.42-3.38c-2,.54-3.22,1.59-3.55,2.91S274.93,332.52,276.37,334Z"/><path class="cls-5" d="M275.75,341.5a11.45,11.45,0,0,0,10,2.71,4.11,4.11,0,0,0,2.53-1.62l9.3-14.41a7.75,7.75,0,0,1-4.07,2.35c-5.62,1.48-13.49-.64-17.57-4.74a7.62,7.62,0,0,1-2.36-4.25l.76,17.11c0,.11,0,.23,0,.34A4.28,4.28,0,0,0,275.75,341.5Z"/><path class="cls-5" d="M275.42,346.51h0l-.7-15.61c0-.15,0-.29,0-.42,0-1.65,1.27-3.05,3.65-3.69a14.17,14.17,0,0,1,12.39,3.36c1.67,1.67,2.08,3.45,1.38,4.85l-.05.1-.23.36-8.56,13.25h0a2.32,2.32,0,0,1-1.43.92,6.46,6.46,0,0,1-5.64-1.53A2.25,2.25,0,0,1,275.42,346.51Z"/><path class="cls-15" d="M275.42,346.51h0l-.7-15.61c0-.15,0-.29,0-.42,0-1.65,1.27-3.05,3.65-3.69a14.17,14.17,0,0,1,12.39,3.36c1.67,1.67,2.08,3.45,1.38,4.85l-.05.1-.23.36-8.56,13.25h0a2.32,2.32,0,0,1-1.43.92,6.46,6.46,0,0,1-5.64-1.53A2.25,2.25,0,0,1,275.42,346.51Z"/><path class="cls-5" d="M276.37,334a14.27,14.27,0,0,0,12.44,3.35c2-.53,3.17-1.57,3.5-2.85s-.1-2.84-1.57-4.31a14.17,14.17,0,0,0-12.42-3.38c-2,.54-3.22,1.59-3.55,2.91S274.93,332.52,276.37,334Z"/><path class="cls-5" d="M276.37,334a14.27,14.27,0,0,0,12.44,3.35c2-.53,3.17-1.57,3.5-2.85s-.1-2.84-1.57-4.31a14.17,14.17,0,0,0-12.42-3.38c-2,.54-3.22,1.59-3.55,2.91S274.93,332.52,276.37,334Z"/><path class="cls-16" d="M274.77,329.69a4,4,0,0,1,2.69-2.62,21,21,0,0,0,13.93,3.84,4,4,0,0,1,.92,3.56c-.33,1.28-1.54,2.32-3.5,2.85A14.27,14.27,0,0,1,276.37,334C274.93,332.52,274.41,331,274.77,329.69Z"/><path class="cls-5" d="M276.18,348.1a6.44,6.44,0,0,0,5.65,1.53,2.31,2.31,0,0,0,1.41-.92h0l4.14-6.4a4.1,4.1,0,0,1-2.08,1.18,10.37,10.37,0,0,1-9-2.44,4,4,0,0,1-1.22-2.18l.34,7.64h0A2.25,2.25,0,0,0,276.18,348.1Z"/><path class="cls-5" d="M337.68,114.77a2.23,2.23,0,0,1,1.77-1.45,7.07,7.07,0,0,1,6.21,1.68,2.24,2.24,0,0,1,.8,2.15h0L336.21,155a2.39,2.39,0,0,0-.84-1.91,7.15,7.15,0,0,0-6.24-1.69,2.34,2.34,0,0,0-1.71,1.28Z"/><path class="cls-5" d="M338.48,116.9a7.13,7.13,0,0,0,6.21,1.68,2.25,2.25,0,0,0,1.75-1.43,2.22,2.22,0,0,0-.78-2.15,7.07,7.07,0,0,0-6.21-1.68,2,2,0,0,0-1,3.58Z"/><path class="cls-5" d="M334.86,97.92h0l0-.12a.83.83,0,0,1,0-.15l2.95-10.88.09-.35,0-.08h0c.53-1.53,2-2.79,4.41-3.42,5-1.34,12.11.58,15.78,4.27,1.85,1.86,2.49,3.81,2,5.47h0l-3,11.06,0,.08,0,.09h0c-.49,1.59-2,2.9-4.46,3.55-5,1.33-12.11-.58-15.78-4.28C335.17,101.39,334.51,99.52,334.86,97.92Z"/><path class="cls-16" d="M334.86,97.92h0l0-.12a.83.83,0,0,1,0-.15l2.95-10.88.09-.35,0-.08h0c.53-1.53,2-2.79,4.41-3.42,5-1.34,12.11.58,15.78,4.27,1.85,1.86,2.49,3.81,2,5.47h0l-3,11.06,0,.08,0,.09h0c-.49,1.59-2,2.9-4.46,3.55-5,1.33-12.11-.58-15.78-4.28C335.17,101.39,334.51,99.52,334.86,97.92Z"/><path class="cls-11" d="M279.26,331l4.27-15.78L327.2,153a.06.06,0,0,1,0-.07l.09-.34A2.36,2.36,0,0,1,329,151.3a7.15,7.15,0,0,1,6.24,1.69,2.38,2.38,0,0,1,.84,1.91s0,0,0,0l-.12.44L292.3,317.58,288,333.37a2.25,2.25,0,0,1-1.76,1.43,7,7,0,0,1-4.72-.64c-.21-.1-.4-.21-.59-.32a5.78,5.78,0,0,1-.89-.71A2.28,2.28,0,0,1,279.26,331Z"/><path class="cls-12" d="M328.07,154.88a7.09,7.09,0,0,0,6.21,1.68,2.23,2.23,0,0,0,1.75-1.43,2.2,2.2,0,0,0-.78-2.15,7.06,7.06,0,0,0-6.2-1.68,2.23,2.23,0,0,0-1.78,1.45A2.28,2.28,0,0,0,328.07,154.88Z"/><path class="cls-12" d="M279.26,331l.64-2.39a21.89,21.89,0,0,0,8.78,2.37l-.64,2.4a2.25,2.25,0,0,1-1.76,1.43,7,7,0,0,1-4.72-.64,5.42,5.42,0,0,1-1.48-1A2.28,2.28,0,0,1,279.26,331Z"/><path class="cls-2" d="M338.92,92.34c4.08,4.11,11.95,6.23,17.57,4.74,2.77-.75,4.48-2.22,4.95-4s-.15-4-2.22-6.09c-4.06-4.12-11.93-6.25-17.54-4.76-2.82.75-4.55,2.24-5,4.1S336.89,90.3,338.92,92.34Z"/><path class="cls-5" d="M339.26,91.11c4.09,4.11,11.95,6.23,17.57,4.74,2.77-.75,4.48-2.22,4.95-4l0-.08.67-2.42a.74.74,0,0,1,0-.14c0-.13,0-.25.07-.39a3.08,3.08,0,0,0,0-.53c0-.11,0-.22,0-.34a.06.06,0,0,0,0-.06,2.23,2.23,0,0,0,0-.34,5.4,5.4,0,0,0-.42-1.49c-.06-.14-.13-.28-.2-.42a.64.64,0,0,0-.11-.2,2.12,2.12,0,0,0-.21-.36,9,9,0,0,0-1.42-1.77c-4.08-4.11-11.93-6.23-17.53-4.75a8.19,8.19,0,0,0-3.76,2l0,0a3.59,3.59,0,0,0-.37.42l-.31.43a2.09,2.09,0,0,0-.16.29l-.1.17c-.05.12-.11.24-.15.37l0,.08c0,.12-.09.25-.12.37l-.58,2.11a1.4,1.4,0,0,0-.09.29C336.5,86.9,337.23,89.07,339.26,91.11Z"/><path class="cls-17" d="M340,88.68c4.08,4.1,11.95,6.22,17.56,4.74,2.78-.76,4.48-2.23,4.95-4s-.14-4-2.22-6.08c-4.06-4.13-11.92-6.25-17.54-4.77-2.82.76-4.54,2.25-5,4.1S337.92,86.64,340,88.68Z"/><path class="cls-12" d="M371.69,137.28h0a20.08,20.08,0,0,0,20.09-20.09v-1.1a17,17,0,0,0-17-17h-6.13a17,17,0,0,0-17,17v1.1A20.08,20.08,0,0,0,371.69,137.28Z"/><path class="cls-12" d="M399.93,139.32h0a9.12,9.12,0,0,1-9.12-9.12V112.06h0a9.12,9.12,0,0,1,9.12,9.12Z"/><path class="cls-12" d="M351,336a53.49,53.49,0,0,1-7.66,6.67,3.21,3.21,0,0,0-1.07,1.1c-.36.75-.92,2.61,2.51,3.8a12.72,12.72,0,0,0,10.57-1c2.82-1.76,2.94-5.43,5.6-7.52,2-1.55,4.42-1.94,6-4,1.11-1.4.82-3.28.24-5.6-.63-2.53-.92-4.45-1.76-4.26l.14,1.17c-1,1.67-6.47,2.16-8.88,1C356.72,327.36,352.54,334.3,351,336Z"/><path class="cls-18" d="M348.64,338.34v0c.82-.75,1.62-1.52,2.38-2.35a66.52,66.52,0,0,0,4.43-6.53,10.12,10.12,0,0,0,1.89-4.76c.05-2.24-.16-6.23-.16-6.23l8-.53.39,8.43h0c.21,1.91-1.37,3.6-4.16,6s-6.35,8-8.88,9.44-4.34,1.36-5.42.64S345.92,341.13,348.64,338.34Z"/><path class="cls-12" d="M377.76,344a52.8,52.8,0,0,1-7.66,6.66,3.21,3.21,0,0,0-1.06,1.11c-.37.75-.93,2.61,2.5,3.8a12.72,12.72,0,0,0,10.57-1c2.82-1.76,2.94-5.43,5.6-7.52,2-1.55,4.42-1.94,6-4,1.11-1.41.82-3.28.25-5.6-.63-2.53-.92-4.45-1.76-4.26l.13,1.17c-1,1.67-6.46,2.16-8.88,1C383.46,335.39,379.29,342.33,377.76,344Z"/><path class="cls-18" d="M375.39,346.37v0c.81-.75,1.61-1.52,2.37-2.35a66.52,66.52,0,0,0,4.43-6.53,11.31,11.31,0,0,0,1.88-4.85c.15-2,0-6.05,0-6.05l8,0,.21,7.77h0c.2,1.91-1.37,3.6-4.17,6s-6.35,8-8.88,9.44-4.34,1.36-5.42.64S372.66,349.15,375.39,346.37Z"/><path class="cls-19" d="M392.24,196.46c7,15.29-1,73.26-1,73.26.21,2.48,2.4,6.34,2.66,13.92.32,9.73-1.4,45.65-1.4,45.65a10.15,10.15,0,0,1-9.16.18s-8.29-48.76-9.91-61.59c-1.41-11.2-4.12-37.51-4.12-37.51l-5.58,37.45s2.87,6.25,3,11.89c.19,7.58-.92,42.76-.92,42.76s-3.4,1.19-9.31.31c0,0-8.43-47.59-9.23-56.67-.47-5.43,3.59-71.94,3.59-71.94Z"/><path class="cls-12" d="M369.35,230.37l-2.28-12.51s-9.61-2-14-6.09c0,0,4.57,5.69,11.37,7.56L367,230.26l-2.52,32.68Z"/><path class="cls-1" d="M378.58,143.29h0c6.14.85,9.43,2.2,11.42,8,1.29,3.78.94,9.34-.36,13.11l-5.37,15.69a84.08,84.08,0,0,1,8,16.4c-15.69,8.76-36.61,4.1-41.32-2.29-.2-1.36,1.07-7.91.69-14.87-.41-7.41-1.6-15.93-.43-20.51,2.16-8.51,8.1-14.07,14.79-15.86Z"/><path class="cls-18" d="M358.21,107.19c-2.13,1.25-4.75,6.59-4.49,17.77.22,9.48,3.29,11.82,4.84,12.5s4.51.26,7.41-.22v5.69s-4,4.65-3.75,7.25,5.77,3.23,9.52.68a24.26,24.26,0,0,0,6.14-6.43V130.68s1.95,2.61,5.14.49,3.32-7.38,1.46-9.26-5.86-1.29-6.6,1.31c0,0-4.62.17-10.76-3.2A17.24,17.24,0,0,1,358.21,107.19Z"/><path class="cls-12" d="M364.31,122.58a1.2,1.2,0,0,0,1.12,1.29,1.24,1.24,0,1,0-1.12-1.29Z"/><path class="cls-13" d="M364,130.62l-2.77.88a1.42,1.42,0,0,0,1.8,1A1.52,1.52,0,0,0,364,130.62Z"/><path class="cls-12" d="M354.53,118.92l2.41-1.67a1.4,1.4,0,0,0-2-.41A1.53,1.53,0,0,0,354.53,118.92Z"/><path class="cls-12" d="M355.09,121.72a1.21,1.21,0,0,0,1.13,1.29,1.23,1.23,0,0,0,1.25-1.18,1.19,1.19,0,1,0-2.38-.11Z"/><polygon class="cls-13" points="360.71 121.03 360.52 128.21 356.74 127.04 360.71 121.03"/><path class="cls-13" d="M366,137.24c3-.4,9.32-2.2,10.3-4.68a6.43,6.43,0,0,1-2.2,3.16c-1.88,1.61-8.1,3.42-8.1,3.42Z"/><path class="cls-18" d="M317.71,189.49c1.87.71,3.74.76,6.28,2a11.84,11.84,0,0,0,5.49,1.56c2.5.12,9.49-2.86,15.64-5.71,7.25-3.38,15-9.48,17.93-12.83,6-6.81,11.17-15.32,13.83-19.87,2.18-3.75,4.44-9.19,7.89-9.88,6,.64,8.49,11.16,4.57,17.66s-10.88,15-18.32,22.22c-3.6,3.49-10.2,7.27-19.65,11.32a129.21,129.21,0,0,1-19.08,6.57c-1.89.49-3.22,1.19-6.78,2.41A15.8,15.8,0,0,1,321,206a20.4,20.4,0,0,1-5.72-.61,13.56,13.56,0,0,1-6.25-3.54,8.61,8.61,0,0,1-2.1-3.37,5.71,5.71,0,0,1,.14-3.91,1.47,1.47,0,0,1,.46-.66,1.89,1.89,0,0,1,1.41-.17c2.7.39,5.56,1.22,8.28,1.32,2.29.09,3.92-.16,3.63-.52s-1.64-.31-3.38-1.3-2.74-2.87-2.13-3.76S315.85,188.79,317.71,189.49Z"/><path class="cls-18" d="M317.64,164.3s2.5-2,7.24-1.2c2.3.37,1.42,9.07-6,11.49-4.81,1.58-5.79.77-7.34,4.73,0,0-2.9-.61-2.19-5A24.59,24.59,0,0,1,315.24,162c2.12-2.51,2.26-4.61,3.3-3.9S319,161,319,161Z"/></g></g></g></svg>